<?xml version="1.0" ?>
<!-- Uploaded to: SVG Repo, www.svgrepo.com, Generator: SVG Repo Mixer Tools -->
<svg fill="#000000" width="800px" height="800px" viewBox="0 0 56 56" id="Layer_1" version="1.1" xml:space="preserve" xmlns="http://www.w3.org/2000/svg" xmlns:xlink="http://www.w3.org/1999/xlink">
<g>
<path d="M28,3c-8.8,0-15.9,7.5-15.9,16.8c0,4.2,1.5,8.2,4.2,11.3c2.2,2.6,3.5,5.7,3.5,8.9v0.6c0,1.2,1,2.3,2.3,2.3H34   c1.2,0,2.3-1,2.3-2.3v-0.5c0-3.2,1.2-6.3,3.5-8.9c2.7-3.1,4.1-7.1,4.1-11.2C43.9,10.5,36.8,3,28,3z M38.3,29.7c-2.6,3-4,6.6-4,10.3   v0.5c0,0.1-0.1,0.3-0.3,0.3h-5V22.5c1.2,0.5,2.9,1,4.6,1c0.8,0,1.7-0.1,2.5-0.5c3.6-1.5,4.8-6.4,4.8-6.7c0.1-0.4-0.1-0.8-0.4-1.1   c-0.2-0.1-4.5-2.8-8.1-1.3c-1.6,0.7-2.9,2.1-3.7,3.4c-0.4-1.5-1.1-3.1-2.4-4.2c-3-2.4-8-1-8.2-1c-0.4,0.1-0.7,0.5-0.7,0.9   c0,0.2-0.3,5.3,2.8,7.8c1.4,1.1,3.2,1.4,4.8,1.4c0.8,0,1.5-0.1,2.1-0.2v18.6h-5c-0.1,0-0.3-0.1-0.3-0.3v-0.6c0-3.7-1.4-7.3-4-10.2   c-2.4-2.7-3.7-6.3-3.7-10C14.1,11.6,20.3,5,28,5s13.9,6.6,13.9,14.8C41.9,23.4,40.6,27,38.3,29.7z M34.9,18.3   c-0.2-0.5-0.8-0.8-1.3-0.6l-3.7,1.4c0.7-1.2,1.8-2.7,3.2-3.3c2-0.8,4.5,0.2,5.6,0.8c-0.4,1.2-1.5,3.7-3.4,4.5c0,0,0,0,0,0   c-1.4,0.6-3.2,0.2-4.7-0.2l3.7-1.4c0.4-0.2,0.6-0.5,0.6-0.9C35,18.5,35,18.4,34.9,18.3z M22.7,18l2.9,2.3c-1.4,0.1-3.1,0-4.3-1   c-1.7-1.3-2-4-2-5.3c1.5-0.3,4.1-0.4,5.6,0.8c1.2,0.9,1.7,2.6,1.9,3.9L24,16.4c-0.4-0.3-1.1-0.3-1.4,0.2c-0.1,0.2-0.2,0.4-0.2,0.6   C22.4,17.5,22.5,17.8,22.7,18z"/>
<path d="M34.8,44.3H21.2c-0.6,0-1,0.4-1,1s0.4,1,1,1h13.6c0.6,0,1-0.4,1-1S35.3,44.3,34.8,44.3z"/>
<path d="M34.8,47.7H21.2c-0.6,0-1,0.4-1,1s0.4,1,1,1h13.6c0.6,0,1-0.4,1-1S35.3,47.7,34.8,47.7z"/>
<path d="M32.3,51h-8.5c-0.6,0-1,0.4-1,1s0.4,1,1,1h8.5c0.6,0,1-0.4,1-1S32.8,51,32.3,51z"/>
</g>
</svg>