<?xml version="1.0" ?>
<!-- Uploaded to: SVG Repo, www.svgrepo.com, Generator: SVG Repo Mixer Tools -->
<svg fill="#000000" width="800px" height="800px" viewBox="0 0 56 56" id="Layer_1" version="1.1" xml:space="preserve" xmlns="http://www.w3.org/2000/svg" xmlns:xlink="http://www.w3.org/1999/xlink">
<g>
<path d="M47.1,21c0.3-5.3-3.3-10.2-8.5-11.3c-1.6-0.4-3.2-0.4-4.8,0C31.2,6.8,27.4,5,23.5,4.8C15.2,4.5,8.1,10.9,7.7,19.2   c0,1.1,0,2.1,0.2,3.2c-2.7,1.7-4.4,4.5-4.5,7.7c-0.1,2.6,0.8,5,2.5,6.9s4.1,3,6.7,3.1l29.3,0.1c0.2,0,0.3,0,0.5,0   c2.6,0,5-0.9,6.9-2.7c2-1.8,3.2-4.4,3.3-7.1C52.8,26.5,50.6,22.8,47.1,21z M47.9,36c-1.6,1.5-3.7,2.2-5.9,2.1l-29.3-0.1   c-4.2-0.2-7.4-3.7-7.3-7.9c0.1-2.7,1.7-5.1,4.1-6.4c0.4-0.2,0.6-0.7,0.5-1.1c-0.2-1.1-0.3-2.2-0.3-3.4c0.3-7,6.1-12.5,13.1-12.5   c0.2,0,0.4,0,0.6,0c3.6,0.2,7.1,1.8,9.4,4.6c0.3,0.3,0.7,0.4,1,0.3c1.4-0.4,2.9-0.4,4.4-0.1c4.2,0.9,7.2,4.9,6.9,9.3   c0,0.1,0,0.3,0,0.5c0,0,0,0.1,0,0.1c0,0,0,0,0,0c0,0,0,0,0,0c0,0,0,0,0,0c0,0,0,0,0,0s0,0,0,0s0,0,0,0c0,0.2,0.1,0.5,0.2,0.7   c0,0.1,0.1,0.1,0.1,0.1c0.1,0.1,0.2,0.1,0.3,0.2c3.1,1.3,5,4.5,4.9,7.9C50.5,32.5,49.5,34.6,47.9,36z"/>
<path d="M17.4,41.9c-0.5-0.2-1.1,0-1.3,0.5l-3.6,7.3c-0.2,0.5,0,1.1,0.5,1.3c0.1,0.1,0.3,0.1,0.4,0.1c0.4,0,0.7-0.2,0.9-0.6   l3.6-7.3C18.1,42.8,17.9,42.2,17.4,41.9z"/>
<path d="M23.2,41.9c-0.5-0.2-1.1,0-1.3,0.5l-3.6,7.3c-0.1,0.1-0.1,0.3-0.1,0.4c0,0.4,0.2,0.7,0.6,0.9c0.1,0.1,0.3,0.1,0.4,0.1   c0.4,0,0.7-0.2,0.9-0.6l3.6-7.3c0.1-0.1,0.1-0.3,0.1-0.4C23.8,42.5,23.6,42.1,23.2,41.9z"/>
<path d="M29.1,41.9c-0.5-0.2-1.1,0-1.3,0.5l-3.6,7.3C24.1,49.9,24,50,24,50.2c0,0.4,0.2,0.7,0.6,0.9c0.1,0.1,0.3,0.1,0.4,0.1   c0.4,0,0.7-0.2,0.9-0.6l3.6-7.3c0.1-0.1,0.1-0.3,0.1-0.4C29.6,42.5,29.4,42.1,29.1,41.9z"/>
<path d="M34.9,41.9c-0.5-0.2-1.1,0-1.3,0.5L30,49.7c-0.1,0.1-0.1,0.3-0.1,0.4c0,0.4,0.2,0.7,0.6,0.9c0.1,0.1,0.3,0.1,0.4,0.1   c0.4,0,0.7-0.2,0.9-0.6l3.6-7.3c0.1-0.1,0.1-0.3,0.1-0.4C35.5,42.5,35.3,42.1,34.9,41.9z"/>
<path d="M40.8,41.9c-0.5-0.2-1.1,0-1.3,0.5l-3.6,7.3c-0.1,0.1-0.1,0.3-0.1,0.4c0,0.4,0.2,0.7,0.6,0.9c0.1,0.1,0.3,0.1,0.4,0.1   c0.4,0,0.7-0.2,0.9-0.6l3.6-7.3c0.1-0.1,0.1-0.3,0.1-0.4C41.4,42.5,41.1,42.1,40.8,41.9z"/>
<path d="M23.3,19.4c1.1,0,1.9,0.3,2.4,0.5l0.5-1.6c-0.6-0.3-1.7-0.6-2.9-0.6c-3.8,0-6.2,2.6-6.2,6.1c0,3.5,2.3,5.9,5.7,5.9   c1.6,0,2.8-0.4,3.3-0.7l-0.4-1.6c-0.6,0.3-1.4,0.6-2.6,0.6c-2.3,0-4-1.6-4-4.3C19.2,21.4,20.6,19.4,23.3,19.4z"/>
<path d="M33.4,17.7c-3.2,0-5.7,2.3-5.7,6.1c0,3.6,2.4,5.9,5.5,5.9c2.8,0,5.7-1.9,5.7-6.1C38.9,20.1,36.7,17.7,33.4,17.7z    M33.3,28.2c-2.1,0-3.5-1.9-3.5-4.4c0-2.2,1.1-4.5,3.6-4.5s3.5,2.5,3.5,4.4C36.8,26.3,35.3,28.2,33.3,28.2z"/>
<path d="M40.8,29.8l0.4-0.3c1-0.9,1.6-1.6,1.6-2.5c0-0.7-0.4-1.3-1.4-1.3c-0.5,0-1,0.2-1.3,0.5l0.2,0.4c0.2-0.2,0.6-0.4,1-0.4   c0.7,0,0.9,0.4,0.9,0.9c0,0.7-0.5,1.3-1.7,2.4L40,29.9v0.4h3v-0.5L40.8,29.8L40.8,29.8z"/>
</g>
</svg>